# xmcd CD database file
#
# Track frame offsets:
#	150
#	16295
#	32856
#	48752
#	60358
#	72651
#	85260
#	96060
#	110244
#	124260
#	138200
#	152120
#	169739
#	183640
#
# Disc length: 2659 seconds
#
# Revision: 0
# Processed by: cddbd v1.5.2PL0 Copyright (c) Steve Scherf et al.
# Submitted via: CDex 1.75
#
DISCID=bf0a610e
DTITLE=Elvis Presley - Where No One Stands Alone 
DYEAR=2018
DGENRE=Blues
TTITLE0=I've Got Confidence
TTITLE1=Where No One Stands Alone
TTITLE2=Saved
TTITLE3=Crying In the Chapel
TTITLE4=So High
TTITLE5=Stand By Me
TTITLE6=Bosom of Abraham
TTITLE7=How Great Thou Art
TTITLE8=I, John
TTITLE9=You'll Never Walk Alone
TTITLE10=He Touched Me
TTITLE11=In the Garden
TTITLE12=He Is My Everything
TTITLE13=Amazing Grace
EXTD=YEAR: 2018
EXTT0=
EXTT1=
EXTT2=
EXTT3=
EXTT4=
EXTT5=
EXTT6=
EXTT7=
EXTT8=
EXTT9=
EXTT10=
EXTT11=
EXTT12=
EXTT13=
PLAYORDER=
